<?xml version="1.0" encoding="UTF-8"?><svg id="Layer_2" xmlns="http://www.w3.org/2000/svg" viewBox="0 0 305.55 172.96"><defs><style>.cls-1{stroke-width:.75px;}.cls-1,.cls-2{stroke:#c4130d;}.cls-1,.cls-2,.cls-3{fill:none;stroke-miterlimit:10;}.cls-4{font-size:26px;letter-spacing:.1em;}.cls-5{font-size:33px;letter-spacing:.1em;}.cls-3{font-family:Montserrat-Bold, Montserrat;font-weight:700;stroke:#c51313;}</style></defs><g id="Logo_1"><g id="_Your_Text_Here_"><g><g><path class="cls-2" d="m50.95,145.61c2.97.66,4.56.53,14.28.14,21.29-.84,10.61-.09,22.01-.76,27.44-1.6,30.89-2.56,53.39-3.81,7.16-.4,26.04-1.38,38.57-3.49.86-.15,4.8-.82,9.84-1.75,8.92-1.65,13.44-2.33,14.53-2.9,12.91-6.71,15.94-22.84,16.35-25.21.6-3.45,3.1-16.95-4.95-26.95-3.23-4.01-6.95-5.96-12.06-8.64-2.34-1.23-8.56-3.1-20.88-6.81-9.02-2.71-11.39-3.3-14.03-3.19-1.33.06-3.43.33-6.08-.5-2.25-.7-2.62-1.48-3.97-1.34-2.38.23-2.64,2.75-5.4,3.64-.85.27-2.27.05-5.07-.41-3.99-.66-4.29-.99-8.03-1.68-4.27-.79-4.96-.56-6-1.51-1.84-1.68-1.24-4.01-2.71-4.3-1.4-.28-2.4,1.45-5.24,1.61-.76.04-1.29-.04-2.03-.17-3.64-.6-4.07-2.24-6.93-2.61-2.18-.28-3.02.52-4.06-.33-.86-.71-.79-1.7-1.86-2.19-.47-.22-.72-.2-2.03-.17-1.7.04-2.55.07-3.04-.25-1.65-1.07.16-5.13-1.53-6.25-.59-.39-.83.08-2.03-.17-2.04-.42-2.49-2-4.82-3.46-.48-.3-1.07-.61-2.96-1.26-7.71-2.66-10.41-1.77-14.96-4.28-2.64-1.45-4.77-3.43-7.78-4.72-.33-.14-1.3-.55-2.96-1.26-2.29-.99-2.47-1.1-2.96-1.26-1.83-.62-3.34-.52-5.07-.41-6.24.37-6.88.15-8.2.35-6.13.96-10.72,8.7-13.33,13.2-4.72,8.16-6.43,15.16-9.41,27.82-1.9,8.04-2.86,13.96-3.52,18.09-2.03,12.69-3.04,19.03-2.07,25.35.62,4.02,1.89,11.61,7.64,19,1.6,2.05,8.23,10.33,19.37,12.81Z"/><path class="cls-2" d="m3.76,73.37c1.87-10.91,3.54-16.54,4.7-20.03,1.89-5.72,3.87-10.17,5.13-12.85,1.79-3.79,4.2-8.89,8.34-14.63,1.89-2.62,5.78-7.95,12.31-13.29C40.02,7.84,49.5.08,61.76.52c1.24.04.04.08,9.04,1.76,17.6,3.27,22.9,3.25,24.94,7.14.7,1.34,1.61,4.29,4.57,6.5.67.5,1.22.79,1.95,1.18,1.79.96,5.99,3.19,8.03,1.68.14-.1.19-.17,1.18-1.95,1.99-3.58,2.01-3.74,2.36-3.89,1.65-.71,3.15,2.02,6,1.51,1.06-.19.97-.59,2.11-.85,2.06-.47,3.4.58,6,1.51,4.3,1.54,4.75.16,7.02,1.59,2.78,1.76,2.68,4.33,4.74,4.47,1.51.1,2.02-1.09,4.22-1.7,1.87-.52,3.37-.17,6.08.5,2.45.6,5.65,1.39,8.88,3.79,2.93,2.18,2.31,3.04,6.6,6.66,2.45,2.07,4.2,3.1,4.82,3.46,2.67,1.52,4.9,2.2,5.92,2.52,12.83,4.03,15.83,7.68,24.86,8.15,2.07.11,3.48,0,6.08.5,3.84.73,6.98,2.16,9.89,3.87,2.05,1.2,12.4,7.48,24.55,24.46,1.9,2.66,2.85,3.98,3.64,5.4,6.28,11.22,5.37,22.55,4.87,27.96-1.43,15.36-8.82,25.58-10.43,27.73-4.14,5.53-8.16,8.57-15.44,14.05-4.59,3.46-12.31,9.29-22.54,13.47-10.71,4.39-19.6,5.11-29.06,5.8-43.35,3.16-55.42,3.65-55.42,3.65-30.45,1.23-45.98,1.79-61.18-.9-16.52-2.93-23.49-6.61-27.82-9.41-15.97-10.34-22.31-25.81-24.05-30.54C.19,119.62.38,110.31.6,99.65c.18-8.87,1.37-15.79,3.16-26.28Z"/><path class="cls-2" d="m157.94,60.42c1.43-4.99,2.86-9.98,4.28-14.96.5-1.73.99-3.46,1.49-5.19.93-3.26,1.86-6.52,2.8-9.77"/><path class="cls-2" d="m147.47,63.65c1.83-6.89,3.76-13.88,5.79-20.97,1.85-6.43,3.72-12.74,5.63-18.94"/><path class="cls-2" d="m132.51,59.37c1.21-6.59,2.77-13.63,4.78-21.05,1.73-6.39,3.61-12.37,5.54-17.92"/><path class="cls-2" d="m124.48,57.69c.43-2.84,1.05-6.62,1.92-11.07,1.16-5.9,2.33-11.76,4.61-19.02.9-2.87,2.18-6.61,3.95-10.91"/><path class="cls-2" d="m118.82,14.36c-1.93,4.42-3.87,9.74-5.38,15.89-2.09,8.52-2.75,16.14-2.83,22.23"/><path class="cls-2" d="m104.01,45.82c.3-4.09.93-8.87,2.17-14.11,1.17-4.96,2.65-9.29,4.12-12.94"/><path class="cls-2" d="m75.16,24.07c.06.31.39,1.89,1.78,3.21.6.57,1.13,1.08,1.95,1.18,1.7.22,3.03-1.53,3.21-1.78.94-1.27,1.39-3.3.41-5.07-.7-1.27-2.14-2.41-3.89-2.36-.13,0-2.24.1-3.21,1.78-.63,1.09-.41,2.21-.25,3.04Z"/><path class="cls-2" d="m100.32,15.91c-6.82-.3-11.72-1.83-15.05-3.27-2.44-1.06-5.55-2.72-9.04-1.76-2.38.66-3.88,2.25-4.3,2.71-.42.45-1.88,2.17-2.61,6.93-.35,2.3-.62,5.85.19,10.22"/><path class="cls-2" d="m61.14,170.94c-3.29-4.03-8.53-9.6-16.16-14.59-6.1-3.98-6.77-3.05-12.69-7.16-4.18-2.9-13.09-9.23-17.78-19.82-1.52-3.42-2.29-6.61-2.46-7.35-1.14-4.82-1.18-8.76-1.12-11.32.49-21.99,5.34-40.4,5.34-40.4,2.27-8.63,3.48-17.54,6.21-26.04.46-1.44,1.76-5.36.83-10.14-.54-2.79-1.67-4.94-2.55-6.33"/><path class="cls-2" d="m202.91,72.26c1.76-9.04,3.52-18.09,5.27-27.13"/><path class="cls-2" d="m203,71.24c.81.08,7.54.65,11.57-4.16,2.03-2.42,2.41-5.04,2.52-5.92,1.17-8.81-8.36-15.66-8.9-16.04"/><path class="cls-2" d="m183.11,52.27c0,.89-.02,2.07.77,3.12,1.04,1.4,3.21,2.19,4.99,1.43,2.42-1.03,2.44-4.19,2.44-4.91,0-.83.02-3.08-1.7-4.22-1.6-1.06-3.87-.6-5.15.6-1.32,1.23-1.34,3-1.34,3.97Z"/><path class="cls-2" d="m194.03,68.47c1.7-1.97,4.36-5.56,5.98-10.74,1.77-5.68,1.44-10.54,1.07-13.18"/><polygon class="cls-1" points="122.78 52.07 123.41 53.89 122.15 55.35 120.25 54.98 119.63 53.16 120.89 51.7 122.78 52.07"/><polygon class="cls-1" points="116.22 49.35 116.85 51.17 115.59 52.63 113.69 52.26 113.07 50.44 114.33 48.98 116.22 49.35"/><polygon class="cls-1" points="121.71 44.69 122.33 46.51 121.07 47.97 119.18 47.6 118.55 45.78 119.82 44.32 121.71 44.69"/><polygon class="cls-1" points="116.97 40.22 117.6 42.04 116.33 43.5 114.44 43.13 113.81 41.31 115.08 39.85 116.97 40.22"/><polygon class="cls-1" points="125.33 37.84 125.96 39.66 124.69 41.12 122.8 40.75 122.17 38.93 123.44 37.47 125.33 37.84"/><polygon class="cls-1" points="119.58 33.29 120.2 35.11 118.94 36.57 117.05 36.2 116.42 34.38 117.68 32.92 119.58 33.29"/><polygon class="cls-1" points="125.91 30.74 126.53 32.57 125.27 34.02 123.38 33.65 122.75 31.83 124.02 30.37 125.91 30.74"/><polygon class="cls-1" points="121.33 24.25 121.96 26.07 120.7 27.52 118.8 27.15 118.18 25.33 119.44 23.88 121.33 24.25"/><polygon class="cls-1" points="129.53 23.89 130.16 25.72 128.89 27.17 127 26.8 126.37 24.98 127.64 23.52 129.53 23.89"/><polygon class="cls-1" points="122.84 18.24 123.47 20.07 122.21 21.52 120.31 21.15 119.69 19.33 120.95 17.88 122.84 18.24"/><polygon class="cls-1" points="131.6 17.68 132.23 19.5 130.96 20.96 129.07 20.59 128.45 18.77 129.71 17.31 131.6 17.68"/><polygon class="cls-1" points="138.46 55.52 139.09 57.35 137.82 58.8 135.93 58.43 135.3 56.61 136.57 55.15 138.46 55.52"/><polygon class="cls-1" points="145.46 58.14 146.09 59.96 144.82 61.41 142.93 61.04 142.3 59.22 143.57 57.77 145.46 58.14"/><polygon class="cls-1" points="145.02 50.95 145.65 52.78 144.39 54.23 142.49 53.86 141.87 52.04 143.13 50.59 145.02 50.95"/><polygon class="cls-1" points="140.28 46.48 140.91 48.31 139.65 49.76 137.75 49.39 137.13 47.57 138.39 46.12 140.28 46.48"/><polygon class="cls-1" points="149.58 45.2 150.2 47.02 148.94 48.48 147.05 48.11 146.42 46.29 147.68 44.83 149.58 45.2"/><polygon class="cls-1" points="143.9 39.63 144.53 41.46 143.27 42.91 141.37 42.54 140.75 40.72 142.01 39.27 143.9 39.63"/><polygon class="cls-1" points="151.25 37.17 151.88 38.99 150.61 40.45 148.72 40.08 148.09 38.26 149.36 36.8 151.25 37.17"/><polygon class="cls-1" points="144.48 32.54 145.11 34.36 143.85 35.81 141.95 35.44 141.33 33.62 142.59 32.17 144.48 32.54"/><polygon class="cls-1" points="153.86 30.24 154.49 32.06 153.22 33.51 151.33 33.15 150.7 31.32 151.97 29.87 153.86 30.24"/><polygon class="cls-1" points="148.1 25.68 148.73 27.51 147.47 28.96 145.57 28.59 144.95 26.77 146.21 25.32 148.1 25.68"/><polygon class="cls-1" points="155.45 23.22 156.08 25.04 154.81 26.5 152.92 26.13 152.29 24.31 153.56 22.85 155.45 23.22"/><path class="cls-2" d="m63.5,29.24c.71-4.68,1.43-9.39,2.17-14.11.69-4.39,1.38-8.75,2.09-13.1"/><path class="cls-2" d="m63.59,28.23c-1.5-.98-3.23-2.41-4.74-4.47-1.18-1.6-4.16-5.67-3.23-10.47.44-2.27,1.58-3.77,2.44-4.91,3.09-4.07,7.39-5.7,9.71-6.35"/></g><text class="cls-3" transform="translate(33.3 104.66)"><tspan class="cls-5"><tspan x="0" y="0">REDPOINT</tspan></tspan><tspan class="cls-4"><tspan x="0" y="29">TRAINING</tspan></tspan></text></g></g></g></svg>